<?xml version="1.0" standalone="no"?>
<!DOCTYPE svg PUBLIC "-//W3C//DTD SVG 20010904//EN"
 "http://www.w3.org/TR/2001/REC-SVG-20010904/DTD/svg10.dtd">
<svg version="1.0" xmlns="http://www.w3.org/2000/svg"
 width="1024.000000pt" height="1024.000000pt" viewBox="0 0 1024.000000 1024.000000"
 preserveAspectRatio="xMidYMid meet">
<metadata>
Created by potrace 1.14, written by Peter Selinger 2001-2017
</metadata>
<g transform="translate(0.000000,1024.000000) scale(0.100000,-0.100000)"
fill="#000000" stroke="none">
<path d="M5388 9334 c-3 -2 -24 -6 -48 -9 -25 -3 -47 -9 -50 -13 -3 -4 -11 -8
-17 -9 -7 -2 -19 -4 -25 -5 -7 -2 -16 -7 -19 -11 -3 -5 -12 -9 -20 -11 -8 -1
-40 -14 -73 -29 -32 -15 -62 -27 -67 -27 -5 0 -9 -5 -9 -11 0 -5 -4 -8 -9 -4
-6 3 -14 -3 -20 -12 -6 -10 -11 -15 -11 -10 0 4 -24 -8 -52 -28 -29 -19 -59
-35 -66 -35 -7 0 -10 -4 -7 -10 3 -5 -3 -10 -15 -10 -12 0 -18 -4 -15 -10 3
-5 -1 -10 -10 -10 -8 0 -18 -7 -21 -15 -4 -8 -11 -15 -16 -15 -12 0 -103 -73
-140 -114 -16 -16 -28 -27 -28 -23 0 3 -11 -5 -25 -19 -14 -14 -30 -22 -35
-19 -6 3 -10 1 -10 -5 0 -7 -7 -10 -15 -6 -8 3 -15 1 -15 -4 0 -6 -7 -10 -15
-10 -8 0 -15 -6 -15 -12 0 -9 -4 -8 -10 2 -5 8 -10 10 -10 5 0 -6 -9 -16 -21
-23 -17 -11 -20 -11 -13 0 4 8 0 7 -12 -3 -10 -9 -39 -24 -64 -33 -25 -10 -50
-22 -56 -27 -17 -14 -116 -11 -108 3 3 4 -2 8 -10 8 -9 0 -16 5 -16 10 0 6 -7
10 -15 10 -8 0 -15 5 -15 10 0 6 -6 10 -14 10 -8 0 -17 7 -20 16 -3 8 -10 12
-16 9 -5 -3 -10 -2 -10 4 0 10 -39 27 -53 23 -5 -1 -6 2 -3 7 6 9 -22 26 -36
23 -5 -1 -8 3 -8 8 0 6 -6 10 -13 10 -7 0 -19 6 -25 13 -7 6 -16 12 -20 13 -4
0 -23 7 -42 16 -19 8 -53 20 -75 27 -22 7 -49 16 -60 21 -17 7 -54 15 -155 35
-69 14 -120 15 -120 3 0 -9 -3 -9 -9 1 -7 11 -28 14 -75 14 -46 0 -64 3 -59
11 5 8 3 8 -8 0 -15 -12 -47 -13 -65 -1 -6 3 -14 3 -18 -1 -4 -4 -31 -8 -59
-9 -67 -1 -120 -8 -182 -23 -27 -6 -72 -16 -100 -21 -100 -18 -110 -21 -116
-31 -3 -5 -9 -8 -12 -6 -4 1 -15 -5 -26 -14 -11 -9 -22 -13 -26 -10 -4 4 -12
0 -19 -8 -12 -15 -28 -26 -96 -61 -21 -11 -44 -27 -51 -35 -6 -8 -18 -14 -25
-14 -8 0 -14 -4 -14 -10 0 -5 -7 -10 -15 -10 -8 0 -15 -4 -15 -9 0 -5 -9 -11
-21 -14 -13 -4 -18 -10 -13 -18 4 -7 3 -10 -4 -5 -6 3 -31 -12 -56 -33 -53
-46 -214 -208 -218 -219 -2 -4 -6 -6 -11 -4 -4 1 -6 -1 -5 -5 3 -9 -60 -104
-76 -115 -6 -4 -7 -8 -3 -8 4 0 -4 -17 -18 -37 -14 -21 -25 -43 -25 -50 0 -7
-5 -13 -12 -13 -6 0 -8 -3 -5 -7 4 -3 -3 -21 -14 -40 -11 -18 -18 -33 -16 -33
3 0 -5 -20 -19 -46 -13 -25 -24 -54 -24 -65 0 -11 -4 -18 -9 -15 -5 4 -8 -2
-6 -11 1 -10 -2 -27 -8 -38 -6 -11 -12 -22 -12 -25 -1 -3 -5 -22 -9 -43 -5
-20 -12 -40 -17 -43 -5 -3 -7 -10 -3 -15 3 -5 1 -15 -4 -22 -5 -7 -8 -20 -7
-29 2 -10 0 -18 -5 -18 -4 0 -6 -10 -2 -22 4 -16 2 -19 -9 -13 -12 8 -12 6 0
-8 7 -9 10 -17 5 -17 -5 0 -10 -53 -12 -118 -5 -212 -7 -247 -17 -254 -7 -5
-7 -8 0 -8 6 0 11 -12 12 -27 0 -15 6 -29 12 -31 6 -2 9 -8 5 -13 -3 -5 0 -9
6 -9 6 0 8 -4 5 -10 -3 -5 -1 -10 4 -10 6 0 10 -3 10 -7 -1 -5 0 -11 1 -15 1
-5 3 -11 5 -15 1 -5 4 -15 7 -23 22 -65 27 -84 22 -91 -3 -5 -1 -9 5 -9 6 0 8
-7 5 -15 -4 -8 -1 -15 6 -15 6 0 8 -5 5 -10 -4 -6 -2 -16 3 -23 6 -7 11 -16
12 -22 3 -22 33 -75 42 -75 5 0 7 -4 4 -8 -3 -5 2 -20 12 -33 9 -13 18 -31 19
-39 1 -8 7 -16 13 -18 5 -2 8 -8 4 -13 -3 -5 0 -9 6 -9 6 0 8 -4 5 -10 -3 -5
0 -10 8 -10 8 0 21 -8 28 -17 13 -17 13 -17 -6 -3 -11 8 -7 -1 10 -21 17 -20
32 -35 34 -33 6 5 31 -24 31 -36 0 -6 5 -8 10 -5 6 3 10 -1 10 -9 0 -9 4 -16
10 -16 5 0 30 -20 56 -45 26 -26 50 -42 57 -39 7 4 9 4 5 0 -4 -5 2 -18 13
-29 15 -17 18 -30 14 -62 -3 -22 -7 -48 -8 -57 -1 -10 -5 -18 -10 -18 -5 0 -7
-7 -4 -15 4 -8 2 -17 -3 -20 -6 -4 -10 -15 -10 -26 0 -13 -4 -18 -13 -13 -9 5
-9 4 0 -6 7 -8 8 -20 3 -34 -19 -48 -27 -71 -33 -98 -1 -7 -6 -19 -10 -25 -5
-8 -3 -13 3 -13 6 0 8 -4 5 -10 -6 -10 -15 -56 -18 -100 -1 -14 -6 -30 -10
-37 -4 -6 -1 -14 5 -16 10 -4 9 -6 -1 -6 -11 -1 -11 -4 0 -18 10 -12 10 -15 1
-9 -9 5 -12 0 -12 -21 1 -15 -2 -89 -5 -163 -3 -74 -6 -171 -5 -215 1 -82 1
-96 -1 -117 -2 -15 10 -148 16 -193 3 -16 7 -61 10 -100 7 -79 22 -135 36
-135 6 0 8 -4 5 -9 -3 -5 1 -11 9 -15 8 -3 15 -15 15 -26 0 -12 5 -18 10 -15
6 4 10 -5 10 -19 0 -14 5 -26 11 -26 6 0 9 -6 6 -14 -3 -7 -2 -17 3 -22 8 -10
45 -155 42 -166 -1 -5 3 -8 10 -8 9 0 9 -3 0 -12 -8 -8 -15 -8 -29 3 -17 13
-17 13 0 -7 17 -21 17 -22 0 -29 -10 -4 -29 -8 -43 -9 -14 -1 -28 -5 -32 -11
-5 -6 -8 -4 -8 5 0 13 -1 13 -10 0 -7 -11 -10 -11 -10 -2 0 7 -4 10 -10 7 -5
-3 -47 -8 -92 -11 -45 -3 -101 -9 -123 -15 -22 -6 -46 -11 -52 -11 -7 -1 -13
-4 -13 -8 0 -3 -8 -6 -17 -6 -10 -1 -34 -5 -53 -9 -19 -4 -43 -8 -52 -9 -10 0
-18 -4 -18 -8 0 -4 -9 -5 -20 -3 -11 2 -20 0 -20 -4 0 -5 -16 -12 -36 -15 -87
-17 -358 -183 -463 -283 -30 -29 -59 -53 -64 -53 -6 0 -7 -3 -4 -7 4 -3 -2
-13 -13 -20 -11 -8 -18 -19 -15 -24 4 -5 -1 -9 -9 -9 -9 0 -16 -5 -16 -11 0
-5 -15 -30 -33 -54 -44 -60 -80 -121 -83 -141 -1 -9 -10 -24 -18 -33 -9 -10
-17 -36 -19 -59 -1 -22 -6 -40 -11 -39 -4 1 -10 -9 -12 -22 -3 -14 -11 -38
-19 -53 -9 -19 -10 -26 -2 -21 7 4 7 0 -1 -10 -8 -9 -11 -21 -8 -26 4 -5 2
-12 -4 -16 -6 -4 -8 -11 -4 -16 3 -5 0 -16 -6 -24 -7 -8 -10 -15 -7 -15 3 0 1
-17 -4 -37 -16 -74 -23 -232 -22 -523 1 -162 4 -313 6 -335 3 -22 8 -69 12
-105 8 -66 12 -95 15 -95 3 0 12 -89 12 -122 0 -18 4 -33 8 -33 4 0 7 -12 7
-26 0 -15 7 -30 14 -35 8 -5 11 -9 7 -9 -4 0 -1 -21 7 -47 8 -27 15 -58 15
-70 0 -13 3 -23 8 -23 4 0 8 -10 8 -22 3 -55 9 -98 15 -98 6 0 9 -20 9 -57 0
-13 5 -23 11 -23 5 0 9 -6 8 -12 -1 -7 4 -26 11 -43 7 -16 14 -32 15 -35 8
-32 20 -59 34 -75 18 -22 21 -52 6 -63 -48 -33 -69 -106 -39 -136 8 -9 12 -16
8 -16 -11 0 39 -35 73 -51 28 -13 186 -15 1265 -14 678 1 1238 3 1243 5 6 1
12 1 15 0 3 -2 1130 -4 2505 -5 1808 -1 2504 1 2514 9 8 6 16 10 18 8 9 -7 60
29 71 50 27 51 19 99 -24 139 l-26 24 -775 -3 c-426 -1 -783 0 -793 3 -11 4
-20 21 -25 48 -13 70 -15 78 -41 177 -27 103 -123 392 -133 400 -3 3 -7 12 -9
20 -6 25 -75 194 -88 215 -7 11 -13 23 -14 27 -1 12 -53 122 -61 128 -3 3 -9
14 -13 25 -3 11 -22 44 -41 73 -19 30 -35 57 -35 60 0 11 -52 87 -134 200 -25
34 -46 67 -46 73 0 6 18 32 40 58 22 26 40 55 40 64 0 9 4 17 8 17 12 0 35 77
38 131 2 25 5 58 8 73 3 14 2 26 -2 26 -4 0 -8 23 -9 52 -1 28 -7 56 -12 61
-13 13 4 47 24 47 7 0 62 25 121 55 60 30 114 55 120 55 7 0 14 4 16 10 2 5
15 11 30 12 15 1 25 5 22 9 -2 4 0 10 6 14 5 3 10 1 10 -5 0 -7 7 -4 16 5 15
15 18 14 31 -5 8 -11 13 -27 10 -34 -3 -7 -1 -19 4 -27 7 -11 9 -11 9 -1 0 8
5 10 13 6 8 -5 7 -2 -2 9 -8 10 -11 20 -7 24 3 3 6 1 6 -5 0 -7 7 -12 16 -12
8 0 12 -4 9 -10 -3 -5 -1 -10 4 -10 17 0 13 28 -5 38 -15 8 -15 10 0 15 9 4
15 1 13 -6 -2 -14 36 -10 41 4 2 5 11 1 20 -8 16 -15 17 -15 20 1 3 14 7 15
18 5 12 -9 13 -9 9 3 -7 19 20 44 30 28 9 -14 45 16 41 33 -2 7 -1 9 1 5 3 -5
14 -8 26 -8 18 0 19 2 7 10 -8 5 -13 10 -10 11 3 0 14 3 25 5 11 3 25 6 32 6
7 1 10 4 8 8 -3 4 5 16 18 26 21 19 21 19 7 -1 -14 -19 -14 -19 5 -4 11 9 26
15 33 13 7 -1 8 0 2 3 -5 2 -10 12 -10 21 0 15 2 15 10 2 9 -14 15 -7 11 14
-1 5 6 3 15 -5 16 -13 16 -12 5 8 -10 20 -9 22 5 16 13 -5 15 -3 9 8 -7 11 -5
11 10 -1 10 -8 16 -10 12 -4 -4 7 0 14 8 18 8 3 15 13 15 21 0 9 4 14 9 10 5
-3 12 -1 16 5 4 6 10 8 15 5 5 -3 12 0 16 6 5 8 3 9 -6 4 -8 -5 -11 -3 -8 6 3
8 11 13 17 12 6 -2 11 4 11 12 0 8 8 15 17 15 9 0 14 3 10 6 -5 6 -1 13 29 47
24 28 94 137 94 146 0 6 4 11 10 11 5 0 9 3 8 8 -1 4 3 17 10 30 7 12 10 22 7
22 -4 0 1 7 9 16 9 8 14 20 11 25 -4 5 -2 9 4 9 5 0 12 14 16 30 4 17 10 30
15 30 4 0 11 16 14 35 4 20 11 33 17 29 6 -3 10 0 8 7 -3 29 1 50 11 44 5 -3
7 0 4 8 -3 8 0 18 6 22 9 6 9 10 -1 16 -10 6 -11 9 -1 9 6 0 12 7 12 15 0 8 4
15 9 15 5 0 11 14 15 31 4 20 10 28 17 23 7 -4 9 -3 6 3 -8 13 22 55 34 48 8
-6 14 17 9 40 -1 5 2 7 6 3 7 -8 31 19 32 36 0 5 4 12 9 15 14 10 34 62 28 72
-4 5 2 6 12 2 10 -3 15 -3 11 2 -4 4 2 24 13 43 10 20 19 42 19 49 0 6 5 13
10 15 6 2 12 13 13 26 0 12 6 22 11 22 5 0 7 3 3 6 -3 4 0 19 9 35 8 16 12 29
9 29 -3 0 -1 8 4 18 5 9 12 33 15 52 7 39 14 65 16 65 1 0 3 11 5 25 2 14 7
41 10 60 3 19 6 60 8 90 1 34 8 60 17 68 8 8 9 11 3 7 -9 -4 -13 2 -13 20 0
18 4 24 13 19 6 -4 9 -4 5 1 -4 4 -3 14 2 21 8 8 7 16 -3 26 -15 14 -19 51 -5
42 5 -3 6 -9 4 -13 -3 -4 1 -8 9 -8 8 0 11 5 8 10 -3 6 3 17 13 25 14 10 14
13 3 9 -12 -4 -16 1 -15 23 1 15 4 26 7 24 12 -7 18 23 6 35 -8 8 -7 11 3 11
10 0 11 3 3 11 -7 7 -8 21 -3 40 6 21 5 27 -2 23 -7 -5 -8 -2 -4 5 10 16 23
254 16 281 -3 12 -12 76 -13 93 -1 9 -4 17 -8 17 -4 0 -9 11 -13 23 -3 13 -28
47 -55 75 -59 59 -133 98 -223 118 -5 1 -9 3 -10 4 -2 1 -14 3 -28 4 -14 1
-35 7 -47 14 -20 11 -22 10 -16 -5 5 -16 4 -16 -9 1 -8 10 -20 16 -26 12 -7
-4 -12 -2 -12 5 0 6 -8 9 -19 6 -14 -3 -18 -1 -14 9 3 8 -1 14 -11 14 -9 0
-16 8 -16 19 0 11 -5 21 -11 23 -6 2 -11 31 -12 66 -1 34 -4 62 -8 62 -3 0 -5
11 -4 25 2 16 -2 25 -11 25 -8 0 -15 5 -15 10 -2 16 -5 23 -29 74 -12 27 -22
60 -22 73 0 13 -5 26 -9 29 -5 3 -7 10 -3 15 3 5 1 15 -5 22 -10 13 -22 58
-25 94 0 12 -3 21 -6 21 -18 -1 -21 4 -10 18 11 13 10 16 -8 20 -14 4 -19 12
-17 25 3 13 -2 19 -13 19 -15 0 -15 2 -2 10 8 5 10 10 3 10 -6 0 -10 13 -9 30
1 17 0 30 -3 30 -3 0 -6 14 -6 30 0 17 3 30 7 30 4 0 5 7 2 15 -4 8 -1 15 6
15 6 0 8 5 5 10 -3 6 0 10 7 10 9 0 9 3 -2 10 -12 8 -12 10 5 10 15 0 17 2 6
9 -9 6 -10 11 -2 15 6 4 9 12 6 17 -4 5 2 9 12 9 12 0 14 3 6 8 -8 5 -9 13 -3
22 6 9 4 20 -3 29 -7 8 -7 12 -2 9 6 -4 17 -3 25 3 11 6 12 9 2 9 -8 0 -10 5
-5 13 10 16 13 32 16 89 1 27 4 48 8 48 7 0 8 19 10 182 1 75 -2 141 -5 146
-3 6 -1 14 5 18 8 4 7 9 -2 15 -9 6 -10 9 -2 9 8 0 9 9 4 28 -5 15 -7 36 -5
47 2 10 -1 24 -5 30 -8 10 -24 61 -25 80 -1 6 -4 13 -9 16 -4 3 -9 16 -12 28
-2 13 -9 28 -14 35 -5 6 -11 23 -14 36 -2 14 -11 42 -20 64 -9 21 -17 42 -17
47 0 5 -4 9 -9 9 -8 0 -17 21 -26 59 -2 8 -8 17 -12 20 -14 9 -78 125 -75 134
1 5 -2 6 -7 2 -12 -7 -33 29 -23 40 4 5 -1 5 -11 2 -11 -4 -16 -3 -12 3 3 6
-1 13 -9 16 -9 3 -16 10 -16 16 0 15 -84 88 -101 88 -5 0 -7 5 -4 10 3 6 2 10
-3 10 -4 0 -26 16 -48 35 -21 19 -45 35 -51 35 -7 0 -13 3 -13 8 0 7 -50 39
-61 38 -4 -1 -16 8 -28 18 -12 11 -21 15 -21 11 0 -4 -8 -1 -17 7 -10 9 -36
24 -58 34 -22 10 -43 23 -47 28 -4 6 -8 7 -8 2 0 -4 -11 -1 -24 7 -13 9 -37
18 -52 21 -16 2 -29 5 -29 6 0 2 -48 12 -70 13 -11 1 -22 5 -25 8 -3 4 -31 9
-63 12 -32 2 -61 7 -64 11 -3 3 -12 1 -20 -5 -9 -8 -13 -8 -13 0 0 12 -27 10
-47 -2 -7 -5 -13 -4 -13 0 0 5 -9 9 -20 10 -11 1 -18 -2 -15 -7 3 -4 -11 -4
-30 0 -19 4 -35 5 -35 1 0 -4 -28 -8 -62 -10 -75 -3 -133 -8 -133 -11 0 -2 -9
-4 -20 -6 -27 -4 -52 -10 -105 -25 -25 -7 -49 -12 -53 -11 -4 1 -21 -5 -37
-13 -17 -9 -30 -13 -30 -10 0 4 -7 -1 -16 -9 -8 -9 -21 -16 -28 -16 -8 0 -19
-7 -26 -15 -7 -8 -16 -13 -20 -10 -4 3 -13 -2 -20 -10 -7 -8 -21 -15 -32 -15
-11 0 -16 -4 -12 -11 5 -8 1 -8 -14 0 -12 6 -24 16 -28 23 -4 6 -3 8 4 4 6 -3
14 -2 17 4 4 6 3 10 -2 9 -19 -3 -34 2 -29 10 8 13 -46 111 -61 111 -7 0 -13
4 -13 9 0 11 -55 52 -73 55 -7 1 -19 6 -27 11 -14 9 -214 18 -222 9z m2937
-3603 c3 -5 1 -12 -5 -16 -5 -3 -10 1 -10 9 0 18 6 21 15 7z m-1201 -1837 c3
-8 2 -12 -4 -9 -6 3 -10 10 -10 16 0 14 7 11 14 -7z"/>
<path d="M7285 3900 c-3 -5 -1 -10 4 -10 6 0 11 5 11 10 0 6 -2 10 -4 10 -3 0
-8 -4 -11 -10z"/>
<path d="M7080 3880 c13 -8 13 -10 -2 -10 -22 0 -29 -13 -16 -30 8 -12 9 -11
4 4 -5 13 -2 17 8 13 8 -3 17 0 19 8 6 15 -1 25 -17 25 -6 0 -4 -5 4 -10z"/>
<path d="M7210 3860 c0 -5 -8 -7 -17 -4 -14 5 -15 4 -4 -4 16 -12 44 -4 35 9
-7 12 -14 11 -14 -1z"/>
</g>
</svg>
